<?xml version="1.0" encoding="utf-8"?>
<!-- Generator: Adobe Illustrator 18.1.0, SVG Export Plug-In . SVG Version: 6.00 Build 0)  -->
<svg version="1.1" id="Layer_1" xmlns="http://www.w3.org/2000/svg" xmlns:xlink="http://www.w3.org/1999/xlink" x="0px" y="0px"
	 viewBox="0 0 250 250" enable-background="new 0 0 250 250" xml:space="preserve">
<circle fill="#51611E" cx="185.8" cy="84.3" r="22.8"/>
<path fill="#D6E99A" d="M165.5,85.5l-19.1-3.4c-3.2-0.6-5.3-3.6-4.8-6.8v0c0.6-3.2,3.6-5.3,6.8-4.8l19.1,3.4
	c3.2,0.6,5.3,3.6,4.8,6.8v0C171.7,83.9,168.7,86.1,165.5,85.5z"/>
<circle fill="#EE6630" cx="113.8" cy="79.8" r="37.3"/>
<path opacity="0.11" d="M111.6,43.6c16.1,7.6,24.5,26.1,19.1,43.6c-4.6,14.6-17.5,24.2-31.8,25.3c1.5,0.7,3.1,1.3,4.7,1.9
	c19.1,6,39.5-4.7,45.4-23.8c6-19.1-4.7-39.5-23.8-45.4C120.7,43.8,116.1,43.3,111.6,43.6z"/>
<path fill="#D6E99A" d="M97,140.5L97,140.5c-5-1-8.3-5.9-7.3-10.9l3.3-16.5c1-5,5.9-8.3,10.9-7.3l0,0c5,1,8.3,5.9,7.3,10.9
	l-3.3,16.5C106.9,138.3,102,141.5,97,140.5z"/>
<circle fill="#81963D" cx="90" cy="175.5" r="49"/>
<path opacity="0.11" d="M106.5,128.5c15.8,18.1,16.3,45.6,0.1,64.3C93,208.4,71.8,213.4,53.4,207c1.5,1.7,3.1,3.3,4.9,4.9
	c20.4,17.7,51.4,15.5,69.1-4.9s15.5-51.4-4.9-69.1C117.6,133.6,112.2,130.5,106.5,128.5z"/>
<path opacity="0.11" d="M166.8,72.9c9.7-5.3,22.1-2.9,28.9,6.3c5.7,7.6,5.8,17.7,1.2,25.3c0.9-0.5,1.8-1.1,2.7-1.7
	c10-7.5,12-21.6,4.6-31.6s-21.6-12-31.6-4.6C170.1,68.4,168.2,70.5,166.8,72.9z"/>
</svg>
